PathFileType  4	(X/Y/Z) C:\Users\antoi\Documents\MyRepositories\mobilecap\ResultsAnalysis
DataRate	CameraRate	NumFrames	NumMarkers	Units	OrigDataRate	OrigDataStartFrame	OrigNumFrames
100.0	100.0	6	51	mm	100.0	273	311
Frame#	Time	r_knee			r_shank_antsup			r_ankle			r_calc			r_5meta			r_toe			L_knee			L_shank_antsup			L_ankle			L_calc			L_5meta			L_toe			r_sh2			r_sh3			r_sh4			L_sh2			L_sh3			r_thigh1			r_thigh2			r_thigh3			r_thigh4			r_thigh5			L_thigh1			L_thigh2			L_thigh3			L_thigh4			r.ASIS			r.PSIS			L.ASIS			L.PSIS			C7			R_Shoulder			L_Shoulder			R_Sternum			L_Sternum			R_humerus			R_elbow_med			R_elbow_lat			R_forearm			R_wrist_radius			R_wrist_ulna			L_humerus			L_elbow_med			L_elbow_lat			L_forearm			L_wrist_radius			L_wrist_ulna			R_HJC			L_HJC			R_HJC_reg			L_HJC_reg			
		X1	Y1	Z1	X2	Y2	Z2	X3	Y3	Z3	X4	Y4	Z4	X5	Y5	Z5	X6	Y6	Z6	X7	Y7	Z7	X8	Y8	Z8	X9	Y9	Z9	X10	Y10	Z10	X11	Y11	Z11	X12	Y12	Z12	X13	Y13	Z13	X14	Y14	Z14	X15	Y15	Z15	X16	Y16	Z16	X17	Y17	Z17	X18	Y18	Z18	X19	Y19	Z19	X20	Y20	Z20	X21	Y21	Z21	X22	Y22	Z22	X23	Y23	Z23	X24	Y24	Z24	X25	Y25	Z25	X26	Y26	Z26	X27	Y27	Z27	X28	Y28	Z28	X29	Y29	Z29	X30	Y30	Z30	X31	Y31	Z31	X32	Y32	Z32	X33	Y33	Z33	X34	Y34	Z34	X35	Y35	Z35	X36	Y36	Z36	X37	Y37	Z37	X38	Y38	Z38	X39	Y39	Z39	X40	Y40	Z40	X41	Y41	Z41	X42	Y42	Z42	X43	Y43	Z43	X44	Y44	Z44	X45	Y45	Z45	X46	Y46	Z46	X47	Y47	Z47	X48	Y48	Z48	X49	Y49	Z49	X50	Y50	Z50	X51	Y51	Z51	

273	2.72000000	-224.70593	768.87773	-409.57843	-188.45559	711.19627	-406.00997	-221.60989	374.79496	-413.66828	-269.87731	390.57949	-468.77972	-166.07432	263.33841	-401.84220	-107.91718	269.04157	-437.62919	-220.51418	784.61329	-741.52980	-182.25536	706.52439	-746.61390	-224.48142	399.14104	-795.07699	-279.63758	399.38858	-739.51219	-168.60319	280.48108	-803.08204	-105.59578	285.37221	-764.46053	-197.96766	599.25607	-393.11656	-263.62694	719.64702	-390.33803	-278.47876	604.00129	-386.64424	-266.24101	724.97361	-773.33602	-268.01438	604.23464	-798.48496	-186.11606	1016.96504	-357.15786	-181.38582	904.97607	-375.14392	-284.85645	900.48763	-414.99824	-294.81170	1013.76383	-388.39667	-242.66303	881.12710	-384.41052	-171.09441	1064.57317	-761.44604	-167.03242	925.32546	-753.25942	-282.31392	1061.41765	-752.27278	-278.97076	924.32668	-725.39070	-122.66493	1221.08928	-441.59483	-309.94645	1292.58144	-510.40679	-115.13722	1236.13979	-648.19018	-304.06625	1298.71235	-588.90736	-183.55715	1701.14205	-508.64142	-122.27973	1669.12184	-369.20169	-118.03404	1686.72318	-644.15569	-60.55455	1650.20400	-498.63712	-56.79386	1652.33077	-521.66853	-110.48165	1572.40713	-285.09380	-219.55684	1378.79120	-252.19958	-185.75410	1397.53548	-192.91288	-100.88991	1348.58815	-190.48950	-4.59229	1246.06988	-209.58901	-22.23111	1225.49955	-182.26900	-109.49658	1622.83921	-745.30777	-186.90067	1421.63686	-834.48178	-144.15506	1467.50662	-876.43308	-47.71057	1443.47786	-836.43955	44.84496	1414.38621	-759.23479	46.24534	1379.20054	-778.11814	-215.38008	1150.20571	-449.25362	-207.06380	1167.88092	-655.83976	-202.73464	1172.96640	-479.37542	-192.54649	1183.58753	-615.38466	
274	2.73000000	-221.52886	761.91033	-408.10021	-183.23904	704.00275	-405.76158	-220.03437	367.89682	-411.54301	-270.36699	383.63477	-464.83777	-164.53938	256.26221	-401.48478	-107.81786	261.87650	-439.68453	-217.17065	778.04334	-741.90046	-177.87339	699.02555	-745.47241	-222.47651	392.32242	-796.16826	-279.76463	393.06083	-742.51510	-167.65192	273.13938	-802.06359	-106.00178	277.52528	-761.11899	-193.42732	592.08524	-392.68325	-257.02780	713.91826	-387.20229	-273.66139	597.70108	-382.64303	-260.43143	718.79499	-775.74232	-262.87567	598.04959	-801.54749	-184.65922	1010.12712	-356.73234	-179.55734	898.34376	-374.26237	-282.95757	893.22053	-414.12040	-293.14178	1006.78771	-388.73753	-240.82566	874.07632	-383.49567	-169.63408	1058.12963	-760.78975	-165.19516	918.95831	-752.96923	-280.79579	1054.99222	-751.63644	-277.36094	917.56713	-725.97446	-122.71909	1214.77656	-440.98169	-310.29962	1286.34701	-509.95503	-115.67919	1229.94681	-647.28250	-304.42878	1293.11589	-588.23926	-184.49475	1694.29490	-507.53173	-122.56170	1662.01876	-367.84622	-118.63801	1679.26423	-643.42858	-61.56201	1643.23855	-497.34805	-57.90528	1645.37903	-520.65343	-110.78799	1563.62291	-284.69740	-219.40385	1369.35886	-255.03598	-186.16449	1387.38615	-195.52918	-101.34209	1337.99228	-193.96381	-6.14853	1234.29114	-214.60675	-23.95657	1213.69124	-187.49744	-110.66241	1612.88363	-743.78792	-192.74120	1411.10499	-826.93017	-148.85066	1454.25658	-870.50488	-52.92613	1427.88423	-830.51541	39.28161	1396.71989	-753.30689	39.61949	1361.44665	-772.08919	-215.85081	1144.03593	-448.69550	-207.52653	1161.88835	-655.26586	-202.88090	1166.03207	-479.18354	-192.70180	1177.76877	-614.90208	
275	2.74000000	-218.56303	754.07852	-406.54882	-178.87682	695.79891	-405.64919	-218.79984	360.32419	-409.24387	-270.69466	375.66145	-461.36618	-163.28217	248.43749	-400.39419	-107.76591	254.19302	-440.93930	-213.73465	770.26482	-742.20944	-173.82132	690.66012	-744.50173	-220.73503	384.47245	-797.30772	-279.72219	385.58370	-745.31661	-166.60105	264.94513	-801.30161	-106.19577	269.10585	-758.49037	-189.76387	584.09649	-391.98308	-251.73704	706.96437	-384.69985	-269.75752	590.42092	-379.44100	-254.93388	711.67832	-777.82089	-258.11876	591.11733	-804.33786	-183.07891	1002.23146	-356.50766	-177.68953	890.70111	-373.36485	-281.07440	885.12780	-413.21467	-291.55854	998.77311	-388.97600	-238.98093	865.92505	-382.78017	-168.17123	1050.74151	-759.99880	-163.31505	911.65722	-752.59708	-279.34864	1047.58340	-751.25514	-275.82192	909.84063	-726.48442	-123.00068	1207.22788	-440.60474	-310.84152	1279.09973	-509.70852	-116.33746	1222.64119	-646.59413	-304.79059	1286.31424	-587.68089	-185.62021	1686.35528	-506.46214	-123.06786	1653.91546	-366.44439	-119.54382	1670.81572	-642.78644	-62.60859	1635.30075	-496.11761	-59.07076	1637.55970	-519.64033	-110.95986	1553.92891	-284.45893	-219.14050	1359.26963	-257.23234	-185.96182	1376.53033	-197.71207	-101.07707	1326.73745	-197.42885	-6.92210	1222.24973	-219.74927	-24.69336	1201.48040	-192.79947	-112.01252	1601.91492	-742.13850	-197.94371	1399.59658	-819.59947	-153.02909	1440.18900	-864.52777	-57.65777	1411.64847	-824.47752	34.11347	1378.66935	-747.31797	33.62124	1343.23495	-765.98914	-216.52380	1136.68055	-448.38246	-208.14492	1154.80191	-654.92701	-203.44351	1158.22504	-479.29724	-192.93377	1170.75529	-614.71761	
276	2.75000000	-215.77118	745.33664	-405.09337	-175.55731	686.66573	-405.16590	-217.93591	351.77367	-407.18350	-270.86030	366.49091	-458.56115	-162.17778	239.81664	-398.67111	-107.55066	245.73062	-440.89669	-210.19899	761.43228	-742.56599	-170.07554	681.34981	-743.77863	-219.21180	375.68349	-798.48424	-279.54302	376.97826	-747.87794	-165.35706	256.08058	-800.92060	-106.07044	260.17748	-756.75934	-187.06425	575.12150	-390.98768	-248.30999	698.25807	-382.86407	-266.82415	582.02487	-376.91711	-249.85552	703.60146	-779.75589	-254.03515	583.12851	-806.47496	-181.57392	993.28310	-356.45272	-175.77642	881.83920	-372.68604	-279.25359	875.99344	-412.22814	-290.09369	989.72580	-389.09674	-237.18397	856.82708	-382.04910	-166.81713	1042.50494	-759.24893	-161.43559	903.36026	-752.00677	-278.05474	1039.14384	-751.18647	-274.17185	901.08093	-726.93031	-123.43704	1198.55425	-439.88498	-311.51508	1270.77240	-509.52917	-117.11825	1214.26909	-646.14636	-305.30039	1278.29232	-587.34466	-186.78592	1677.36869	-505.45544	-123.69169	1644.72846	-364.97869	-120.70487	1661.42896	-642.31668	-63.66475	1626.45250	-495.07174	-60.16246	1628.73037	-518.68217	-110.97742	1543.38794	-284.18875	-218.85120	1348.50936	-258.72840	-185.09962	1364.81717	-199.58845	-100.26139	1314.71823	-200.80334	-6.98729	1209.79706	-225.17574	-24.50609	1188.88007	-198.21729	-113.51600	1590.04610	-740.51325	-202.48761	1387.03586	-812.50839	-156.82643	1425.19858	-858.37843	-61.91225	1394.76941	-818.48965	29.49550	1360.28103	-741.47679	28.19948	1324.61787	-759.91236	-217.35791	1128.23772	-448.07599	-208.81638	1146.55366	-654.59701	-204.22503	1149.31809	-479.05059	-193.40169	1162.41581	-614.58027	
277	2.76000000	-213.30411	735.57930	-403.81839	-173.19580	676.60478	-404.00666	-217.36276	341.96592	-405.65998	-270.94112	355.95664	-456.50214	-161.03839	230.46213	-396.29620	-106.95019	236.27274	-439.32558	-206.90490	751.96392	-743.09655	-166.63193	671.14485	-743.53346	-217.82350	365.98414	-799.49832	-279.27028	367.27412	-750.19563	-163.92663	246.60840	-801.05228	-105.58130	250.76758	-755.89944	-185.18706	565.04172	-389.77910	-245.71427	688.73412	-381.18330	-264.76360	572.47607	-375.06936	-245.39935	694.45724	-781.39725	-250.69153	573.97660	-807.95145	-180.49061	983.72303	-355.88583	-173.90156	872.05750	-372.14153	-277.45480	865.79837	-411.25376	-288.71349	979.75455	-388.88796	-235.35104	847.00469	-381.08581	-165.60389	1033.35103	-758.53006	-159.52708	894.14197	-751.41512	-276.89305	1029.53240	-751.30143	-272.33616	891.22432	-727.30180	-123.92371	1188.70219	-438.82044	-312.21548	1261.34430	-509.37206	-118.02342	1204.83576	-645.89145	-305.95302	1269.06467	-587.05746	-187.87729	1667.33298	-504.38365	-124.36322	1634.41099	-363.61262	-122.06549	1651.05700	-641.97000	-64.71067	1616.71199	-494.21540	-61.27389	1618.78969	-517.98967	-110.82265	1531.96678	-283.90165	-218.42367	1336.88256	-259.84379	-183.57297	1352.05555	-201.46563	-98.95215	1301.97641	-204.04765	-6.27058	1196.94558	-230.93032	-23.40865	1175.83847	-203.71531	-115.10072	1577.23917	-738.90332	-206.26157	1373.53796	-805.68978	-160.24638	1409.28904	-852.14324	-65.66969	1377.23870	-812.70355	25.55353	1341.52214	-735.73621	23.24221	1305.71444	-754.35247	-218.26680	1118.66823	-447.73908	-209.54475	1137.15974	-654.23688	-205.09671	1139.25819	-478.36684	-194.13178	1152.77777	-614.39374	
278	2.77000000	-211.27321	724.76155	-402.59074	-171.55111	665.59156	-402.36561	-217.03238	330.94151	-404.48636	-270.95052	344.12811	-455.10385	-159.87971	220.34537	-393.41004	-105.92585	225.91051	-436.56472	-203.78695	741.79309	-743.81615	-163.46871	660.16007	-743.79068	-216.49219	355.34027	-800.29242	-278.88725	356.52650	-752.34033	-162.36355	236.40334	-801.47104	-104.64572	240.77439	-755.61380	-183.92534	553.91261	-388.37436	-243.83920	677.98449	-379.68529	-263.53955	561.67497	-373.91748	-241.69900	684.22986	-782.44302	-247.90600	563.77820	-808.93079	-179.91151	973.87539	-354.36020	-172.24891	861.62710	-371.45557	-275.81388	854.70699	-410.38074	-287.48396	968.95185	-388.22956	-233.49134	836.40585	-380.00714	-164.47696	1023.19297	-757.73664	-157.43756	884.14148	-750.99964	-275.81585	1018.66871	-751.44053	-270.34866	880.25752	-727.65018	-124.51008	1177.42370	-438.21566	-312.87422	1250.86245	-509.16961	-119.01077	1194.27259	-645.63104	-306.59329	1258.61797	-586.66875	-188.93061	1656.24797	-503.22241	-125.06525	1623.00811	-362.41146	-123.50314	1639.63574	-641.63195	-65.70542	1605.96254	-493.56295	-62.57588	1607.81024	-517.64595	-110.45311	1519.67619	-283.79958	-217.60013	1324.17673	-260.97376	-181.51977	1338.27046	-203.35355	-97.11919	1288.57442	-207.13012	-4.64983	1184.01788	-236.45998	-21.48082	1162.43086	-209.18079	-116.74577	1563.44623	-737.25790	-209.34274	1359.14207	-799.10042	-163.09429	1392.65162	-846.05175	-68.86965	1359.13993	-807.01144	22.22005	1322.30486	-730.01265	18.84862	1286.50060	-749.09009	-219.24606	1107.75697	-447.63750	-210.45343	1126.70970	-654.08985	-206.12073	1128.41514	-477.88415	-195.07685	1142.05163	-614.15231	
